<svg width="24" height="24" viewBox="0 0 24 24" fill="none" xmlns="http://www.w3.org/2000/svg">
<mask id="mask0_115446_8589" style="mask-type:alpha" maskUnits="userSpaceOnUse" x="0" y="0" width="25" height="24">
<rect x="0.000976562" width="24" height="24" fill="#D9D9D9"/>
</mask>
<g mask="url(#mask0_115446_8589)">
<path d="M5.00098 19H6.40098L15.026 10.375L13.626 8.975L5.00098 17.6V19ZM19.301 8.925L15.051 4.725L16.451 3.325C16.8343 2.94167 17.3051 2.75 17.8635 2.75C18.4218 2.75 18.8926 2.94167 19.276 3.325L20.676 4.725C21.0593 5.10833 21.2593 5.57083 21.276 6.1125C21.2926 6.65417 21.1093 7.11667 20.726 7.5L19.301 8.925ZM17.851 10.4L7.25098 21H3.00098V16.75L13.601 6.15L17.851 10.4Z" fill="#2A3647"/>
</g>
</svg>
